<svg width="16" height="16" viewBox="0 0 16 16" fill="none" xmlns="http://www.w3.org/2000/svg">
<path fill-rule="evenodd" clip-rule="evenodd" d="M8 1C8.55228 1 9 1.44772 9 2V3H11C12.6569 3 14 4.34315 14 6V11C14 12.6569 12.6569 14 11 14H5C3.34315 14 2 12.6569 2 11V6C2 4.34315 3.34315 3 5 3H7V2C7 1.44772 7.44772 1 8 1ZM5 5C4.44772 5 4 5.44772 4 6V11C4 11.5523 4.44772 12 5 12H11C11.5523 12 12 11.5523 12 11V6C12 5.44772 11.5523 5 11 5H5Z" fill="url(#paint0_radial_agent)"/>
<circle cx="6" cy="8" r="1" fill="black"/>
<circle cx="10" cy="8" r="1" fill="black"/>
<path d="M6 10C6 10 7 11 8 11C9 11 10 10 10 10" stroke="black" stroke-width="1" stroke-linecap="round"/>
<defs>
<radialGradient id="paint0_radial_agent" cx="0" cy="0" r="1" gradientUnits="userSpaceOnUse" gradientTransform="translate(4.5 5.5) rotate(67.1663) scale(10.3078)">
<stop stop-opacity="0.3"/>
<stop offset="1"/>
</radialGradient>
</defs>
</svg>
